<svg xmlns="http://www.w3.org/2000/svg" width="134" height="124" viewBox="0 0 134 124" role="img">
  <defs>
    <linearGradient id="bg-bitbucket" x1="0" y1="0" x2="1" y2="1">
      <stop offset="0" stop-color="#E6EEFA"/>
      <stop offset="1" stop-color="#A8C4EE"/>
    </linearGradient>
  </defs>
  <circle cx="67" cy="46" r="42" fill="url(#bg-bitbucket)" stroke="#FFFFFF" stroke-width="3.5"/>
  <g transform="translate(44.000 23.000) scale(0.35938)"><defs><linearGradient id="bitbucket-original-a" gradientUnits="userSpaceOnUse" x1="28.593" y1="14.226" x2="16.672" y2="23.532" gradientTransform="scale(4)"><stop offset=".176" stop-color="#0052cc"/><stop offset="1" stop-color="#2684ff"/></linearGradient></defs><path d="M19.082 20c-1.918 0-3.355 1.758-3.039 3.516l12.95 79.289c.32 2.078 2.077 3.515 4.155 3.515h62.66c1.442 0 2.72-1.12 3.04-2.558l13.109-80.086c.316-1.918-1.121-3.516-3.039-3.516zM74.07 77.227H54.09l-5.278-28.293h30.215zm0 0" fill="#2684ff"/><path d="M107.64 48.934H78.868L74.07 77.227H54.09l-23.5 27.972s1.12.961 2.719.961h62.66c1.441 0 2.719-1.12 3.039-2.558zm0 0" fill="url(#bitbucket-original-a)"/></g>
  <text x="67" y="116" text-anchor="middle" font-family="'Segoe UI',Helvetica,Arial,sans-serif" font-size="19" font-weight="600" fill="#747A80">Bitbucket</text>
</svg>
